<svg xmlns="http://www.w3.org/2000/svg" xmlns:xlink="http://www.w3.org/1999/xlink" data-name="Layer 1" width="277.6260162349482" height="74.25203246989628" style=""><rect id="backgroundrect" width="100%" height="100%" x="0" y="0" fill="none" stroke="none" style="" class=""/><defs><style>.cls-1{fill:none;}.cls-2{fill:#00bcd4;}.cls-3{fill:#1a1a1a;}.cls-4{fill:url(#New_Pattern_Swatch_1);}.cls-5{fill:url(#linear-gradient);}.cls-6{fill:url(#linear-gradient-2);}</style><pattern id="New_Pattern_Swatch_1" data-name="New Pattern Swatch 1" width="100" height="100" patternUnits="userSpaceOnUse" viewBox="0 0 100 100"><rect class="cls-1" width="100" height="100" id="svg_1"/><rect class="cls-2" width="100" height="100" id="svg_2"/></pattern><linearGradient id="linear-gradient" x1="99.05999755859375" y1="47.5" x2="88.25" y2="34.619998931884766" gradientUnits="userSpaceOnUse"><stop offset="0" stop-color="#00bcd4"/><stop offset="0.23" stop-color="#00bad1"/><stop offset="0.41" stop-color="#00b2c7"/><stop offset="0.58" stop-color="#00a4b6"/><stop offset="0.74" stop-color="#00929e"/><stop offset="0.9" stop-color="#007a80"/><stop offset="1" stop-color="#066"/></linearGradient><linearGradient id="linear-gradient-2" x1="6.559999942779541" y1="31.850000381469727" x2="18.450000762939453" y2="43.7400016784668" gradientUnits="userSpaceOnUse"><stop offset="0" stop-color="#00bcd4"/><stop offset="0.44" stop-color="#00bbd2"/><stop offset="0.6" stop-color="#00b5cb"/><stop offset="0.71" stop-color="#00acc0"/><stop offset="0.8" stop-color="#009faf"/><stop offset="0.88" stop-color="#008e99"/><stop offset="0.95" stop-color="#00797e"/><stop offset="1" stop-color="#066"/></linearGradient></defs><title>Artboard 1</title><g class="currentLayer" style=""><title>Layer 1</title><path class="cls-3" d="M117.1900021841577,15.440000023841893 h1.6 a0.7600000000000002,0.7600000000000002 0 0 1 0.5,0.16000000000000006 a0.8,0.8 0 0 1 0.26,0.3600000000000001 l5.49,17.17 a9.36,9.36 0 0 1 0.24000000000000005,1 l0.18000000000000005,0.92 c0.07,-0.3100000000000001 0.15000000000000005,-0.6100000000000002 0.24000000000000005,-0.92 s0.19000000000000006,-0.6300000000000002 0.3100000000000001,-1 l5.84,-17.32 a0.6000000000000002,0.6000000000000002 0 0 1 0.6100000000000002,-0.4800000000000001 h0.8500000000000002 a0.6200000000000002,0.6200000000000002 0 0 1 0.6300000000000002,0.4800000000000001 L139.7100021841577,33.14000002384189 a17.91,17.91 0 0 1 0.52,1.9 q0.09000000000000004,-0.46 0.19000000000000006,-0.93 a7.79,7.79 0 0 1 0.27,-1 L146.2000021841577,16.000000023841892 a0.7100000000000002,0.7100000000000002 0 0 1 0.7400000000000002,-0.52 h1.53 L141.1900021841577,37.200000023841895 h-1.53 q-0.3500000000000001,0 -0.5,-0.46 l-6,-17.67 q-0.11000000000000003,-0.3300000000000001 -0.2,-0.6600000000000003 t-0.15000000000000005,-0.6600000000000003 q-0.07,0.3300000000000001 -0.14,0.6600000000000003 t-0.19000000000000006,0.6600000000000003 l-6,17.67 a0.53,0.53 0 0 1 -0.52,0.46 h-1.47 z" id="svg_3" stroke="#dadada" stroke-opacity="1" stroke-width="3"/><path class="cls-3" d="M160.7100021841577,15.090000023841892 a9,9 0 0 1 3.4,0.6300000000000002 a7.65,7.65 0 0 1 2.71,1.85 a8.52,8.52 0 0 1 1.79,3 a11.86,11.86 0 0 1 0.6500000000000002,4.07 a1.09,1.09 0 0 1 -0.14,0.6600000000000003 a0.54,0.54 0 0 1 -0.45,0.18000000000000005 H152.9500021841577 v0.4200000000000001 a14.74,14.74 0 0 0 0.5700000000000002,4.3100000000000005 a8.81,8.81 0 0 0 1.62,3.12 A6.66,6.66 0 0 0 157.7100021841577,35.19000002384189 a8.38,8.38 0 0 0 3.3200000000000003,0.6300000000000002 a9.93,9.93 0 0 0 2.84,-0.3600000000000001 a10.59,10.59 0 0 0 2,-0.81 a11.16,11.16 0 0 0 1.3,-0.81 a1.48,1.48 0 0 1 0.7000000000000002,-0.3600000000000001 a0.5,0.5 0 0 1 0.4400000000000001,0.22000000000000006 l0.5700000000000002,0.7000000000000002 a5.93,5.93 0 0 1 -1.3900000000000001,1.22 a9.86,9.86 0 0 1 -1.92,1 a13.92,13.92 0 0 1 -2.27,0.6500000000000002 a12.54,12.54 0 0 1 -2.44,0.24000000000000005 a10.35,10.35 0 0 1 -4.07,-0.78 a8.65,8.65 0 0 1 -3.15,-2.26 a10.36,10.36 0 0 1 -2,-3.64 a15.57,15.57 0 0 1 -0.7200000000000002,-4.93 a13.45,13.45 0 0 1 0.6700000000000004,-4.32 a9.89,9.89 0 0 1 1.92,-3.41 a8.78,8.78 0 0 1 3.08,-2.24 A10.14,10.14 0 0 1 160.7100021841577,15.090000023841892 zm0,1.55 a8.17,8.17 0 0 0 -3,0.52 a6.59,6.59 0 0 0 -2.3,1.51 A7.69,7.69 0 0 0 153.8400021841577,21.000000023841892 a10.75,10.75 0 0 0 -0.8,3.08 h14.33 a9.57,9.57 0 0 0 -0.4800000000000001,-3.14 a6.72,6.72 0 0 0 -1.35,-2.35 a5.86,5.86 0 0 0 -2.1,-1.48 A6.92,6.92 0 0 0 160.7100021841577,16.65000002384189 z" id="svg_4" stroke="#dadada" stroke-opacity="1" stroke-dasharray="none" stroke-width="2"/><path class="cls-3" d="M175.07000218415772,37.200000023841895 V5.380000023841893 h2.08 l0,13.870000000000001 a11.35,11.35 0 0 1 3.35,-3 a8.31,8.31 0 0 1 4.29,-1.12 a7.59,7.59 0 0 1 6.24,2.77 q2.24,2.77 2.24,8.32 a15.33,15.33 0 0 1 -0.6200000000000002,4.45 a10.57,10.57 0 0 1 -1.84,3.59 a8.73,8.73 0 0 1 -3,2.39 a9,9 0 0 1 -4.06,0.8800000000000002 a7.59,7.59 0 0 1 -6.75,-3.5 l-0.13,2.67 a0.54,0.54 0 0 1 -0.5800000000000002,0.55 zm9.13,-20.45 a7.14,7.14 0 0 0 -3.92,1.12 A11.11,11.11 0 0 0 177.1400021841577,21.000000023841892 V32.46000002384189 a7.39,7.39 0 0 0 2.7600000000000002,2.64 a8.46,8.46 0 0 0 6.86,0.05000000000000002 a6.65,6.65 0 0 0 2.42,-2 a8.93,8.93 0 0 0 1.47,-3.06 a14.7,14.7 0 0 0 0.4900000000000001,-3.93 q0,-4.86 -1.8,-7.14 A6.16,6.16 0 0 0 184.2000021841577,16.750000023841892 z" id="svg_5" fill="#ffffff" fill-opacity="1" stroke="#dadada" stroke-opacity="1" opacity="1" stroke-width="3"/><path class="cls-3" d="M199.5230103137544,37.200000023841895 V15.440000023841893 h1.1400000000000001 a0.5900000000000003,0.5900000000000003 0 0 1 0.6600000000000005,0.55 l0.2,3.15 a13.57,13.57 0 0 1 1.36,-1.6400000000000001 a9,9 0 0 1 1.54,-1.28 a7.12,7.12 0 0 1 1.75,-0.8300000000000003 a6.41,6.41 0 0 1 2,-0.30000000000000016 a5.21,5.21 0 0 1 3.81,1.3900000000000001 a7.27,7.27 0 0 1 1.9300000000000002,3.8600000000000003 a7.57,7.57 0 0 1 1.1,-2.34 a6.8900000000000015,6.8900000000000015 0 0 1 1.6300000000000003,-1.6300000000000003 a6.75,6.75 0 0 1 2,-1 a7.85,7.85 0 0 1 2.22,-0.3200000000000002 a7.5,7.5 0 0 1 2.9,0.54 a5.8100000000000005,5.8100000000000005 0 0 1 2.2,1.59 a7.2,7.2 0 0 1 1.3900000000000001,2.58 a11.68,11.68 0 0 1 0.48000000000000015,3.5 V37.200000023841895 h-2.08 V23.29000002384189 a7.48,7.48 0 0 0 -1.3800000000000001,-4.87 a4.8100000000000005,4.8100000000000005 0 0 0 -3.94,-1.6700000000000006 a5.82,5.82 0 0 0 -2.18,0.42000000000000015 a5.28,5.28 0 0 0 -1.84,1.24 a5.93,5.93 0 0 0 -1.27,2 a7.93,7.93 0 0 0 -0.47000000000000014,2.84 V37.200000023841895 H212.5230103137544 V23.29000002384189 a8,8 0 0 0 -1.27,-4.86 a4.34,4.34 0 0 0 -3.7,-1.6800000000000006 a5.59,5.59 0 0 0 -3.2800000000000002,1.06 a10.06,10.06 0 0 0 -2.6900000000000004,2.94 V37.200000023841895 z" id="svg_6" fill="#ffffff" fill-opacity="1" stroke="#dadada" stroke-opacity="1" stroke-width="3"/><path class="cls-3" d="M241.82000218415772,15.090000023841892 a10.47,10.47 0 0 1 4.19,0.8 a8.55,8.55 0 0 1 3.12,2.26 a10.06,10.06 0 0 1 1.94,3.5300000000000002 a15,15 0 0 1 0.6700000000000004,4.63 a14.92,14.92 0 0 1 -0.6700000000000004,4.62 a10.06,10.06 0 0 1 -1.94,3.52 a8.44,8.44 0 0 1 -3.12,2.25 a11.54,11.54 0 0 1 -8.38,0 a8.54,8.54 0 0 1 -3.13,-2.25 a9.94,9.94 0 0 1 -1.9500000000000002,-3.52 a14.89,14.89 0 0 1 -0.6700000000000004,-4.62 a15,15 0 0 1 0.6700000000000004,-4.63 a9.94,9.94 0 0 1 1.9500000000000002,-3.5300000000000002 a8.65,8.65 0 0 1 3.13,-2.26 A10.46,10.46 0 0 1 241.82000218415772,15.090000023841892 zm0,20.76 a8.08,8.08 0 0 0 3.4,-0.6700000000000004 a6.43,6.43 0 0 0 2.43,-1.9100000000000001 a8.44,8.44 0 0 0 1.45,-3 a15,15 0 0 0 0.4800000000000001,-3.95 a15,15 0 0 0 -0.4800000000000001,-3.94 a8.54,8.54 0 0 0 -1.45,-3 a6.5,6.5 0 0 0 -2.43,-1.94 a8.870000000000001,8.870000000000001 0 0 0 -6.8,0 a6.49,6.49 0 0 0 -2.43,1.94 a8.67,8.67 0 0 0 -1.47,3 a14.69,14.69 0 0 0 -0.4900000000000001,3.94 a14.67,14.67 0 0 0 0.4900000000000001,3.95 a8.57,8.57 0 0 0 1.47,3 a6.42,6.42 0 0 0 2.43,1.9100000000000001 A8.08,8.08 0 0 0 241.82000218415772,35.85000002384189 z" id="svg_7" stroke="#dadada" stroke-opacity="1" stroke-width="3"/><path class="cls-3" d="M257.4100021841577,37.200000023841895 V5.380000023841893 h2.08 l0,13.870000000000001 a11.37,11.37 0 0 1 3.35,-3 a8.31,8.31 0 0 1 4.29,-1.12 a7.59,7.59 0 0 1 6.25,2.77 q2.24,2.77 2.24,8.32 a15.33,15.33 0 0 1 -0.6200000000000002,4.45 a10.56,10.56 0 0 1 -1.84,3.59 a8.73,8.73 0 0 1 -3,2.39 a9,9 0 0 1 -4.06,0.8800000000000002 a7.59,7.59 0 0 1 -6.75,-3.5 l-0.13,2.67 a0.54,0.54 0 0 1 -0.5800000000000002,0.55 zm9.13,-20.45 a7.14,7.14 0 0 0 -3.92,1.12 A11.1,11.1 0 0 0 259.4900021841577,21.000000023841892 V32.46000002384189 a7.4,7.4 0 0 0 2.7600000000000002,2.64 a8.45,8.45 0 0 0 6.86,0.05000000000000002 a6.65,6.65 0 0 0 2.42,-2 a8.92,8.92 0 0 0 1.47,-3.06 a14.69,14.69 0 0 0 0.4900000000000001,-3.93 q0,-4.86 -1.8,-7.14 A6.16,6.16 0 0 0 266.5500021841577,16.750000023841892 z" id="svg_8" stroke="#dadada" stroke-opacity="1" stroke-width="3"/><path class="cls-4" d="M122.5700021841577,63.310000023841894 a2.31,2.31 0 0 1 -1.75,-0.6300000000000002 a2.5300000000000002,2.5300000000000002 0 0 1 -0.6100000000000002,-1.83 V55.00000002384189 h-1.1600000000000001 a0.3700000000000001,0.3700000000000001 0 0 1 -0.26,-0.09000000000000004 a0.3500000000000001,0.3500000000000001 0 0 1 -0.1,-0.28 v-0.6700000000000004 l1.57,-0.2 l0.3900000000000001,-3 a0.3600000000000001,0.3600000000000001 0 0 1 0.12000000000000002,-0.23 a0.3900000000000001,0.3900000000000001 0 0 1 0.27,-0.09000000000000004 h0.8500000000000002 v3.31 h2.75 V55.00000002384189 h-2.75 v5.76 a1.22,1.22 0 0 0 0.2900000000000001,0.9 a1,1 0 0 0 0.7600000000000002,0.2900000000000001 a1.33,1.33 0 0 0 0.46,-0.07 a1.8800000000000003,1.8800000000000003 0 0 0 0.3400000000000002,-0.16000000000000006 l0.24000000000000005,-0.16000000000000006 a0.3200000000000001,0.3200000000000001 0 0 1 0.18000000000000005,-0.07 a0.2900000000000001,0.2900000000000001 0 0 1 0.24000000000000005,0.16000000000000006 l0.4900000000000001,0.81 a3.15,3.15 0 0 1 -1.05,0.6400000000000002 A3.58,3.58 0 0 1 122.5700021841577,63.310000023841894 z" id="svg_9"/><path class="cls-4" d="M135.2700021841577,53.41000002384189 a4.29,4.29 0 0 1 1.59,0.2900000000000001 a3.58,3.58 0 0 1 1.26,0.8300000000000002 a3.81,3.81 0 0 1 0.8300000000000002,1.35 a5.2,5.2 0 0 1 0.3000000000000001,1.83 a1.1,1.1 0 0 1 -0.08000000000000003,0.53 a0.3500000000000001,0.3500000000000001 0 0 1 -0.3200000000000001,0.13 h-6.39 a5.32,5.32 0 0 0 0.25,1.58 a3.24,3.24 0 0 0 0.6300000000000002,1.12 a2.51,2.51 0 0 0 0.9500000000000002,0.6700000000000004 a3.25,3.25 0 0 0 1.23,0.22000000000000006 a3.63,3.63 0 0 0 1.09,-0.15000000000000005 a5.33,5.33 0 0 0 0.79,-0.3200000000000001 a6,6 0 0 0 0.55,-0.3200000000000001 a0.7400000000000002,0.7400000000000002 0 0 1 0.3800000000000001,-0.15000000000000005 a0.3700000000000001,0.3700000000000001 0 0 1 0.3200000000000001,0.16000000000000006 l0.4700000000000001,0.6200000000000002 a3.18,3.18 0 0 1 -0.7500000000000002,0.6600000000000003 a4.67,4.67 0 0 1 -0.93,0.46 a6,6 0 0 1 -1,0.27 a6.34,6.34 0 0 1 -1.05,0.09000000000000004 a4.88,4.88 0 0 1 -1.83,-0.3400000000000002 a4,4 0 0 1 -1.45,-1 a4.52,4.52 0 0 1 -1,-1.61 a6.53,6.53 0 0 1 -0.3400000000000002,-2.2 a5.6,5.6 0 0 1 0.3100000000000001,-1.8800000000000003 a4.42,4.42 0 0 1 0.8900000000000002,-1.51 a4.08,4.08 0 0 1 1.4100000000000001,-1 A4.6400000000000015,4.6400000000000015 0 0 1 135.2700021841577,53.41000002384189 zm0,1.24 a2.59,2.59 0 0 0 -1.92,0.7100000000000002 a3.3200000000000003,3.3200000000000003 0 0 0 -0.8700000000000002,2 H137.7100021841577 a3.42,3.42 0 0 0 -0.16000000000000006,-1.08 a2.41,2.41 0 0 0 -0.4700000000000001,-0.8400000000000002 a2.13,2.13 0 0 0 -0.7600000000000002,-0.55 A2.59,2.59 0 0 0 135.3100021841577,54.65000002384189 z" id="svg_10"/><path class="cls-4" d="M152.7100021841577,55.26000002384189 a0.7200000000000002,0.7200000000000002 0 0 1 -0.15000000000000005,0.16000000000000006 a0.3600000000000001,0.3600000000000001 0 0 1 -0.22000000000000006,0.06000000000000002 a0.54,0.54 0 0 1 -0.3100000000000001,-0.12000000000000002 a4.39,4.39 0 0 0 -0.4200000000000001,-0.26 a3.54,3.54 0 0 0 -0.6200000000000002,-0.26 a3,3 0 0 0 -0.9,-0.12000000000000002 a2.92,2.92 0 0 0 -1.24,0.25 a2.41,2.41 0 0 0 -0.91,0.7300000000000002 a3.2800000000000002,3.2800000000000002 0 0 0 -0.55,1.15 a5.7,5.7 0 0 0 -0.18000000000000005,1.51 a5.5,5.5 0 0 0 0.2,1.55 a3.37,3.37 0 0 0 0.56,1.1400000000000001 a2.39,2.39 0 0 0 0.8800000000000002,0.7000000000000002 a2.71,2.71 0 0 0 1.1600000000000001,0.24000000000000005 a3,3 0 0 0 1,-0.15000000000000005 a3.09,3.09 0 0 0 0.6600000000000003,-0.3300000000000001 a4.69,4.69 0 0 0 0.4400000000000001,-0.3300000000000001 a0.53,0.53 0 0 1 0.3400000000000002,-0.15000000000000005 a0.3600000000000001,0.3600000000000001 0 0 1 0.3200000000000001,0.16000000000000006 l0.4700000000000001,0.6200000000000002 A3.6500000000000004,3.6500000000000004 0 0 1 151.7100021841577,62.94000002384189 a5.54,5.54 0 0 1 -2,0.3600000000000001 a4.19,4.19 0 0 1 -1.6700000000000004,-0.3300000000000001 A3.81,3.81 0 0 1 146.7100021841577,62.00000002384189 a4.57,4.57 0 0 1 -0.9,-1.55 a6.23,6.23 0 0 1 -0.3300000000000001,-2.09 a6.3100000000000005,6.3100000000000005 0 0 1 0.3000000000000001,-2 a4.48,4.48 0 0 1 0.8700000000000002,-1.57 a3.94,3.94 0 0 1 1.42,-1 a4.76,4.76 0 0 1 1.9300000000000002,-0.3700000000000001 a4.57,4.57 0 0 1 1.78,0.3300000000000001 a4.27,4.27 0 0 1 1.37,0.92 z" id="svg_11"/><path class="cls-4" d="M159.7100021841577,63.16000002384189 v-14 h1.6900000000000004 v5.65 a5.18,5.18 0 0 1 1.36,-1 a3.6500000000000004,3.6500000000000004 0 0 1 1.73,-0.3900000000000001 a3.47,3.47 0 0 1 1.3900000000000001,0.26 a2.6900000000000004,2.6900000000000004 0 0 1 1,0.7400000000000002 a3.26,3.26 0 0 1 0.6100000000000002,1.15 A5,5 0 0 1 167.7100021841577,57.00000002384189 v6.11 h-1.6900000000000004 V57.00000002384189 a2.58,2.58 0 0 0 -0.5,-1.6900000000000004 a1.86,1.86 0 0 0 -1.52,-0.6000000000000002 a2.83,2.83 0 0 0 -1.4,0.3600000000000001 a4.6,4.6 0 0 0 -1.2,1 v7.07 z" id="svg_12"/><path class="cls-4" d="M175.0100021841577,63.16000002384189 v-9.6 h1 a0.4300000000000001,0.4300000000000001 0 0 1 0.45,0.3500000000000001 l0.13,1 a5.39,5.39 0 0 1 1.4,-1.12 a3.64,3.64 0 0 1 1.79,-0.4300000000000001 a3.47,3.47 0 0 1 1.3900000000000001,0.26 a2.6900000000000004,2.6900000000000004 0 0 1 1,0.7400000000000002 a3.26,3.26 0 0 1 0.6100000000000002,1.15 a5,5 0 0 1 0.21000000000000005,1.49 v6.11 H181.3100021841577 V57.00000002384189 a2.58,2.58 0 0 0 -0.5,-1.6900000000000004 a1.86,1.86 0 0 0 -1.52,-0.6000000000000002 a2.83,2.83 0 0 0 -1.4,0.3600000000000001 a4.6,4.6 0 0 0 -1.2,1 v7.07 z" id="svg_13"/><path class="cls-4" d="M194.1800021841577,53.41000002384189 a4.94,4.94 0 0 1 1.9,0.3500000000000001 a4,4 0 0 1 1.44,1 a4.4,4.4 0 0 1 0.91,1.56 a6.74,6.74 0 0 1 0,4.09 a4.41,4.41 0 0 1 -0.91,1.55 a4,4 0 0 1 -1.44,1 a5.39,5.39 0 0 1 -3.8,0 a4,4 0 0 1 -1.45,-1 a4.42,4.42 0 0 1 -0.92,-1.55 a6.65,6.65 0 0 1 0,-4.09 a4.41,4.41 0 0 1 0.92,-1.56 a4.06,4.06 0 0 1 1.45,-1 A4.94,4.94 0 0 1 194.1800021841577,53.41000002384189 zm0,8.57 a2.46,2.46 0 0 0 2.12,-1 a5.42,5.42 0 0 0 0,-5.33 a2.46,2.46 0 0 0 -2.12,-1 a3,3 0 0 0 -1.25,0.25 a2.34,2.34 0 0 0 -0.8900000000000002,0.7100000000000002 a3.16,3.16 0 0 0 -0.53,1.1400000000000001 a6.75,6.75 0 0 0 0,3.06 a3.11,3.11 0 0 0 0.53,1.13 a2.36,2.36 0 0 0 0.8900000000000002,0.7100000000000002 A2.94,2.94 0 0 0 194.1800021841577,62.00000002384189 z" id="svg_14"/><path class="cls-4" d="M207.4500021841577,49.200000023841895 v14 H205.7100021841577 v-14 z" id="svg_15"/><path class="cls-4" d="M219.0500021841577,53.41000002384189 a4.94,4.94 0 0 1 1.9,0.3500000000000001 a4,4 0 0 1 1.44,1 a4.4,4.4 0 0 1 0.91,1.56 a6.75,6.75 0 0 1 0,4.09 a4.41,4.41 0 0 1 -0.91,1.55 a4,4 0 0 1 -1.44,1 a5.4,5.4 0 0 1 -3.8,0 A4,4 0 0 1 215.7100021841577,62.00000002384189 a4.44,4.44 0 0 1 -0.92,-1.55 a6.65,6.65 0 0 1 0,-4.09 a4.43,4.43 0 0 1 0.92,-1.56 a4.06,4.06 0 0 1 1.45,-1 A4.94,4.94 0 0 1 219.0500021841577,53.41000002384189 zm0,8.57 a2.46,2.46 0 0 0 2.12,-1 a5.42,5.42 0 0 0 0,-5.33 a2.46,2.46 0 0 0 -2.12,-1 a3,3 0 0 0 -1.25,0.25 a2.34,2.34 0 0 0 -0.8900000000000002,0.7100000000000002 a3.16,3.16 0 0 0 -0.53,1.1400000000000001 a6.77,6.77 0 0 0 0,3.06 A3.1,3.1 0 0 0 216.9100021841577,61.00000002384189 a2.35,2.35 0 0 0 0.8900000000000002,0.7100000000000002 A2.93,2.93 0 0 0 219.0500021841577,62.00000002384189 z" id="svg_16"/><path class="cls-4" d="M233.7100021841577,53.40000002384189 a4.76,4.76 0 0 1 1.17,0.14 a3.66,3.66 0 0 1 1,0.4 h2.6100000000000003 v0.6300000000000002 c0,0.21000000000000005 -0.13,0.3400000000000002 -0.4,0.4 l-1.09,0.15000000000000005 a2.92,2.92 0 0 1 0.3200000000000001,1.37 a3,3 0 0 1 -0.27,1.28 a2.88,2.88 0 0 1 -0.7500000000000002,1 a3.35,3.35 0 0 1 -1.1400000000000001,0.6300000000000002 a4.57,4.57 0 0 1 -1.45,0.22000000000000006 a4.86,4.86 0 0 1 -1.27,-0.16000000000000006 a1.6300000000000003,1.6300000000000003 0 0 0 -0.46,0.4200000000000001 a0.78,0.78 0 0 0 -0.16000000000000006,0.4400000000000001 a0.6000000000000002,0.6000000000000002 0 0 0 0.28,0.53 a1.9100000000000001,1.9100000000000001 0 0 0 0.7300000000000002,0.26 a6.18,6.18 0 0 0 1,0.08000000000000003 h1.18 a6.57,6.57 0 0 1 1.18,0.11000000000000003 a3.5700000000000003,3.5700000000000003 0 0 1 1,0.3500000000000001 a1.9300000000000002,1.9300000000000002 0 0 1 0.7300000000000002,0.6600000000000003 a2,2 0 0 1 0.27,1.09 a2.5700000000000003,2.5700000000000003 0 0 1 -0.3100000000000001,1.21 a3.27,3.27 0 0 1 -0.8900000000000002,1 a4.55,4.55 0 0 1 -1.4100000000000001,0.7300000000000002 a6.06,6.06 0 0 1 -1.8900000000000001,0.27 a7.29,7.29 0 0 1 -1.84,-0.21000000000000005 a4.34,4.34 0 0 1 -1.31,-0.56 a2.44,2.44 0 0 1 -0.78,-0.81 a1.9300000000000002,1.9300000000000002 0 0 1 -0.26,-1 a1.7400000000000002,1.7400000000000002 0 0 1 0.45,-1.21 a3.1,3.1 0 0 1 1.24,-0.79 a1.6900000000000004,1.6900000000000004 0 0 1 -0.6500000000000002,-0.51 a1.36,1.36 0 0 1 -0.24000000000000005,-0.8500000000000002 a1.33,1.33 0 0 1 0.08000000000000003,-0.4300000000000001 a1.6800000000000004,1.6800000000000004 0 0 1 0.23,-0.4400000000000001 a2.46,2.46 0 0 1 0.92,-0.77 A3,3 0 0 1 230.4300021841577,58.00000002384189 a2.89,2.89 0 0 1 -0.4,-1.54 a3,3 0 0 1 0.27,-1.27 a2.83,2.83 0 0 1 0.7500000000000002,-1 a3.43,3.43 0 0 1 1.15,-0.6200000000000002 A4.69,4.69 0 0 1 233.7100021841577,53.40000002384189 zm3,10.25 a0.8500000000000002,0.8500000000000002 0 0 0 -0.2,-0.5900000000000002 a1.28,1.28 0 0 0 -0.54,-0.3400000000000002 a3.77,3.77 0 0 0 -0.79,-0.18000000000000005 a7.2,7.2 0 0 0 -0.9400000000000002,-0.06000000000000002 h-1 a3.63,3.63 0 0 1 -1,-0.13 a2.7600000000000002,2.7600000000000002 0 0 0 -0.8800000000000002,0.6300000000000002 a1.27,1.27 0 0 0 -0.3400000000000002,0.8800000000000002 a1.1600000000000001,1.1600000000000001 0 0 0 0.17,0.6000000000000002 a1.42,1.42 0 0 0 0.51,0.4800000000000001 a3,3 0 0 0 0.8600000000000002,0.3200000000000001 a5.49,5.49 0 0 0 1.22,0.12000000000000002 a5.4,5.4 0 0 0 1.22,-0.13 a3.05,3.05 0 0 0 0.92,-0.3600000000000001 a1.7600000000000002,1.7600000000000002 0 0 0 0.5700000000000002,-0.55 A1.31,1.31 0 0 0 236.7100021841577,63.6500000238419 zm-3,-5.18 a2.6500000000000004,2.6500000000000004 0 0 0 0.9,-0.14 a1.83,1.83 0 0 0 0.6600000000000003,-0.4 a1.6400000000000001,1.6400000000000001 0 0 0 0.4,-0.6100000000000002 a2.24,2.24 0 0 0 0.13,-0.78 a1.87,1.87 0 0 0 -0.54,-1.4 a2.58,2.58 0 0 0 -3.11,0 a1.87,1.87 0 0 0 -0.54,1.4 a2.15,2.15 0 0 0 0.14,0.78 a1.6800000000000004,1.6800000000000004 0 0 0 0.4,0.6100000000000002 a1.84,1.84 0 0 0 0.6500000000000002,0.4 A2.59,2.59 0 0 0 233.7100021841577,58.47000002384189 z" id="svg_17"/><path class="cls-4" d="M247.1200021841577,50.54000002384189 a1.08,1.08 0 0 1 -0.1,0.46 a1.33,1.33 0 0 1 -0.27,0.3800000000000001 a1.24,1.24 0 0 1 -0.3800000000000001,0.26 a1.15,1.15 0 0 1 -0.46,0.09000000000000004 a1.11,1.11 0 0 1 -0.46,-0.09000000000000004 a1.25,1.25 0 0 1 -0.3800000000000001,-0.26 a1.23,1.23 0 0 1 -0.26,-0.3800000000000001 a1.12,1.12 0 0 1 -0.09000000000000004,-0.46 a1.18,1.18 0 0 1 0.09000000000000004,-0.4700000000000001 a1.19,1.19 0 0 1 0.26,-0.3900000000000001 a1.25,1.25 0 0 1 0.3800000000000001,-0.26 a1.11,1.11 0 0 1 0.46,-0.09000000000000004 a1.15,1.15 0 0 1 0.46,0.09000000000000004 a1.24,1.24 0 0 1 0.3800000000000001,0.26 a1.29,1.29 0 0 1 0.27,0.3900000000000001 A1.1400000000000001,1.1400000000000001 0 0 1 247.1200021841577,50.54000002384189 zm-0.3800000000000001,3 v9.6 h-1.6900000000000004 v-9.6 z" id="svg_18"/><path class="cls-4" d="M258.2600021841577,53.41000002384189 a4.29,4.29 0 0 1 1.59,0.2900000000000001 a3.5700000000000003,3.5700000000000003 0 0 1 1.26,0.8300000000000002 a3.79,3.79 0 0 1 0.8300000000000002,1.35 a5.2,5.2 0 0 1 0.3000000000000001,1.83 a1.1,1.1 0 0 1 -0.08000000000000003,0.53 a0.3500000000000001,0.3500000000000001 0 0 1 -0.3200000000000001,0.13 h-6.39 a5.28,5.28 0 0 0 0.25,1.58 a3.24,3.24 0 0 0 0.6300000000000002,1.12 a2.51,2.51 0 0 0 0.9500000000000002,0.6700000000000004 a3.26,3.26 0 0 0 1.23,0.22000000000000006 a3.63,3.63 0 0 0 1.09,-0.15000000000000005 a5.38,5.38 0 0 0 0.79,-0.3200000000000001 a6,6 0 0 0 0.55,-0.3200000000000001 a0.7400000000000002,0.7400000000000002 0 0 1 0.3800000000000001,-0.15000000000000005 a0.3700000000000001,0.3700000000000001 0 0 1 0.3200000000000001,0.16000000000000006 l0.4700000000000001,0.6200000000000002 a3.16,3.16 0 0 1 -0.7500000000000002,0.6600000000000003 a4.6400000000000015,4.6400000000000015 0 0 1 -0.93,0.46 a5.94,5.94 0 0 1 -1,0.27 a6.32,6.32 0 0 1 -1.05,0.09000000000000004 a4.88,4.88 0 0 1 -1.83,-0.3400000000000002 a4,4 0 0 1 -1.45,-1 a4.53,4.53 0 0 1 -1,-1.61 a6.53,6.53 0 0 1 -0.3400000000000002,-2.2 a5.57,5.57 0 0 1 0.3100000000000001,-1.8800000000000003 a4.4,4.4 0 0 1 0.8900000000000002,-1.51 a4.08,4.08 0 0 1 1.4100000000000001,-1 A4.6400000000000015,4.6400000000000015 0 0 1 258.2600021841577,53.41000002384189 zm0,1.24 a2.59,2.59 0 0 0 -1.92,0.7100000000000002 a3.3200000000000003,3.3200000000000003 0 0 0 -0.8700000000000002,2 H260.7100021841577 a3.42,3.42 0 0 0 -0.16000000000000006,-1.08 a2.4,2.4 0 0 0 -0.4700000000000001,-0.8400000000000002 a2.13,2.13 0 0 0 -0.7600000000000002,-0.55 A2.59,2.59 0 0 0 258.2900021841577,54.65000002384189 z" id="svg_19"/><path class="cls-4" d="M274.6300021841577,55.14000002384189 a0.3700000000000001,0.3700000000000001 0 0 1 -0.3500000000000001,0.21000000000000005 a0.6600000000000003,0.6600000000000003 0 0 1 -0.3200000000000001,-0.1 L273.5100021841577,55.00000002384189 a4.14,4.14 0 0 0 -0.6200000000000002,-0.24000000000000005 a2.94,2.94 0 0 0 -0.8500000000000002,-0.11000000000000003 a2.5,2.5 0 0 0 -0.77,0.11000000000000003 a1.85,1.85 0 0 0 -0.5800000000000002,0.3000000000000001 a1.32,1.32 0 0 0 -0.3700000000000001,0.4400000000000001 a1.18,1.18 0 0 0 -0.13,0.54 a0.91,0.91 0 0 0 0.21000000000000005,0.6200000000000002 a1.84,1.84 0 0 0 0.56,0.4300000000000001 a4.83,4.83 0 0 0 0.8,0.3200000000000001 l0.92,0.2900000000000001 q0.4700000000000001,0.16000000000000006 0.91,0.3500000000000001 a3.36,3.36 0 0 1 0.8,0.4700000000000001 a2.18,2.18 0 0 1 0.56,0.7000000000000002 a2.13,2.13 0 0 1 0.21000000000000005,1 a3.15,3.15 0 0 1 -0.24000000000000005,1.23 a2.7,2.7 0 0 1 -0.7000000000000002,1 a3.41,3.41 0 0 1 -1.1400000000000001,0.6500000000000002 a4.7,4.7 0 0 1 -1.55,0.24000000000000005 A4.83,4.83 0 0 1 269.7100021841577,63.00000002384189 a4.6,4.6 0 0 1 -1.3800000000000001,-0.8400000000000002 l0.4,-0.6400000000000002 a0.5800000000000002,0.5800000000000002 0 0 1 0.18000000000000005,-0.19000000000000006 a0.51,0.51 0 0 1 0.27,-0.07 a0.6400000000000002,0.6400000000000002 0 0 1 0.3600000000000001,0.13 l0.46,0.2900000000000001 a3.48,3.48 0 0 0 0.6500000000000002,0.2900000000000001 a3,3 0 0 0 1,0.13 a2.6500000000000004,2.6500000000000004 0 0 0 0.8600000000000002,-0.13 a1.81,1.81 0 0 0 0.6200000000000002,-0.3500000000000001 a1.3800000000000001,1.3800000000000001 0 0 0 0.3600000000000001,-0.5 a1.56,1.56 0 0 0 0.12000000000000002,-0.6100000000000002 a1,1 0 0 0 -0.21000000000000005,-0.6600000000000003 a1.81,1.81 0 0 0 -0.56,-0.45 a4.65,4.65 0 0 0 -0.8,-0.3200000000000001 l-0.92,-0.2900000000000001 q-0.4700000000000001,-0.15000000000000005 -0.92,-0.3500000000000001 a3.18,3.18 0 0 1 -0.8,-0.4900000000000001 a2.21,2.21 0 0 1 -0.56,-0.7200000000000002 a2.35,2.35 0 0 1 -0.21000000000000005,-1 a2.55,2.55 0 0 1 0.23,-1.06 a2.58,2.58 0 0 1 0.6600000000000003,-0.8900000000000002 a3.26,3.26 0 0 1 1.07,-0.6100000000000002 a4.29,4.29 0 0 1 1.45,-0.23 a4.58,4.58 0 0 1 1.7000000000000002,0.3000000000000001 a4,4 0 0 1 1.3,0.8200000000000002 z" id="svg_20"/><path class="cls-5" d="M101.2100021841577,21.690000023841893 V69.44000002384189 a1.51,1.51 0 0 1 -0.93,1.3900000000000001 A1.49,1.49 0 0 1 99.7100021841577,71.00000002384189 a1.5,1.5 0 0 1 -1.06,-0.4400000000000001 L84.8400021841577,56.76000002384189 a1.5,1.5 0 0 1 -0.4400000000000001,-1.07 l0,-16.7 v-0.52 z" id="svg_21"/><path class="cls-4" d="M101.2100021841577,1.5600000238418927 V21.690000023841893 L84.4400021841577,38.47000002384189 v0 l-0.27,0.27 L83.11000218415771,39.79000002384189 l-9.79,9.74 a1.52,1.52 0 0 1 -1.06,0.45 h0 a1.47,1.47 0 0 1 -0.93,-0.3300000000000001 l-2.56,-2.56 l-7.26,-7.32 L43.8100021841577,22.070000023841892 A1.51,1.51 0 0 1 43.3700021841577,21.000000023841892 V1.5600000238418927 a1.51,1.51 0 0 1 2.55,-1.08 l0,0 L69.1300021841577,23.68000002384189 l3.19,3.19 L98.9500021841577,0.26000002384189186 A1.52,1.52 0 0 1 99.7100021841577,2.3841892016207566e-8 a1.56,1.56 0 0 1 0.5800000000000002,0.12000000000000002 A1.51,1.51 0 0 1 101.2100021841577,1.5600000238418927 z" id="svg_22"/><path class="cls-4" d="M57.8500021841577,50.00000002384189 V69.44000002384189 a1.51,1.51 0 0 1 -0.93,1.3900000000000001 a1.47,1.47 0 0 1 -0.5800000000000002,0.12000000000000002 a1.5,1.5 0 0 1 -1,-0.4200000000000001 h0 L32.090002184157704,47.32000002384189 l-3.19,-3.19 L2.2700021841577023,70.74000002384189 a1.48,1.48 0 0 1 -0.7600000000000002,0.21000000000000005 a1.46,1.46 0 0 1 -0.5800000000000002,-0.12000000000000002 a1.5,1.5 0 0 1 -0.93,-1.3900000000000001 V49.310000023841894 L16.7900021841577,32.53000002384189 v0 l0.27,-0.27 l1.06,-1.07 l9.79,-9.75 A1.5,1.5 0 0 1 28.960002184157702,21.000000023841892 h0 a1.49,1.49 0 0 1 0.93,0.3300000000000001 l2.56,2.56 L39.7100021841577,31.240000023841894 l1,1 L57.410002184157705,48.93000002384189 A1.52,1.52 0 0 1 57.8500021841577,50.00000002384189 z" id="svg_23"/><path class="cls-6" d="M16.830002184157703,15.31000002384189 l0,16.71 v0.51 L0.0100021841577016,49.310000023841894 V1.5600000238418927 a1.51,1.51 0 0 1 0.93,-1.3900000000000001 A1.56,1.56 0 0 1 1.5200021841577023,2.3841892016207566e-8 a1.52,1.52 0 0 1 1.06,0.4400000000000001 l13.8,13.76 A1.51,1.51 0 0 1 16.830002184157703,15.31000002384189 z" id="svg_24"/></g></svg>